<?xml version="1.0" encoding="UTF-8"?>
<svg xmlns="http://www.w3.org/2000/svg" id="Layer_1" viewBox="0 0 100.04 44">
  <defs>
    <style>.cls-1{fill:#fff;}</style>
  </defs>
  <path id="Path" class="cls-1" d="M71.51,22.75v4.88c0,.56,.2,1.04,.6,1.4,.4,.4,.96,.56,1.6,.56h3.16v-.88h-3.12c-.36,0-.68-.12-.92-.4s-.36-.6-.36-.96v-4.4c0-.36,.12-.68,.36-.88,.24-.24,.52-.36,.88-.36h3.12v-.92h-3.12c-.52,0-1.04,.16-1.48,.44-.48,.28-.72,.8-.72,1.52Z"></path>
  <path id="Shape" class="cls-1" d="M86.08,22.51c0-.52-.2-.96-.6-1.4-.16-.2-.36-.32-.56-.36-.08-.04-.28-.04-.76-.04h-5v.92h4.8c1,0,1.16,.56,1.16,.92v1.12h-3.96c-1.36,0-2,.8-2,2.52v1.28c0,.56,.2,1.04,.6,1.48,.4,.44,.88,.64,1.4,.64h3c.48,0,.92-.2,1.32-.6s.6-.88,.6-1.4v-5.08h0Zm-.96,5c0,.12-.04,.32-.16,.52-.16,.32-.36,.48-.6,.56-.08,.04-.24,.08-.72,.08h-2c-.52,0-.84-.08-1.04-.2-.16-.12-.28-.28-.36-.44-.08-.2-.12-.36-.12-.48v-1.68c0-.48,.2-1.24,1.48-1.24h3.56l-.04,2.88h0Z"></path>
  <path id="Path-2" class="cls-1" d="M90.88,21.71h.44v-.96h-.56c-.68,0-1.16,.16-1.52,.52-.28,.28-.4,.8-.4,1.56v6.76h.92v-6.72c0-.72,.4-1.16,1.12-1.16Z"></path>
  <path id="Shape-2" class="cls-1" d="M100.04,17.43h-.92v3.28h-3.72c-1.44,0-2.12,.64-2.12,2v4.8c0,.64,.16,1.12,.48,1.44,.44,.44,.92,.64,1.44,.64h2.92c.52,0,1-.2,1.36-.64,.4-.44,.56-.96,.56-1.6v-9.92h0Zm-.92,9.88c0,.4-.12,.72-.36,.96-.24,.24-.52,.4-.92,.4h-2.6c-.32,0-.56-.12-.76-.36s-.28-.52-.28-.84v-4.52c0-.84,.44-1.28,1.24-1.28h3.68v5.64h0Z"></path>
  <path id="Shape-3" class="cls-1" d="M18.09,23.53c0-.36-.16-.52-.48-.52h-1.68c-.4,.04-.6,.24-.64,.64v3.04c0,.44,.24,.64,.68,.64h1.56c.16,0,.28-.08,.4-.2,.12-.08,.16-.2,.16-.36v-3.24h0Zm-5.08-.44c0-.76,.28-1.36,.6-1.76,.16-.16,.4-.32,.64-.44,.28-.12,.52-.2,.8-.2h3.12c1.36,0,2.08,.76,2.08,2.28v4.6c0,.52-.2,1-.64,1.36-.4,.4-.88,.6-1.44,.64h-2.96v3.32h-2.2v-9.8h0Z"></path>
  <path id="Shape-4" class="cls-1" d="M24.21,26.91c0,.12,.04,.24,.16,.32,.12,.08,.24,.12,.4,.12h1.68c.36,0,.56-.16,.6-.44v-.64c0-.36-.2-.52-.6-.52h-1.68c-.2,0-.36,.04-.44,.12-.08,.08-.12,.24-.12,.48v.56Zm2.84-3.44c0-.32-.2-.48-.6-.48h-4.4v-2.24h4.96c1.44,.04,2.16,.72,2.2,2.08v4.68c0,.6-.2,1.08-.56,1.48s-.84,.6-1.44,.6h-3c-1.44,0-2.2-.68-2.2-2v-1.8c0-1.4,.72-2.08,2.12-2.12h2.92v-.2h0Z"></path>
  <path id="Path-3" class="cls-1" d="M35.34,30.67c.16,0,.32-.08,.44-.2,.12-.12,.16-.24,.16-.36v-.52h-2.8c-.36,0-.64-.04-.88-.12s-.44-.24-.68-.48c-.2-.24-.36-.48-.48-.76-.08-.24-.16-.52-.16-.88v-6.64h2.2v5.92c0,.48,.2,.72,.6,.72h1.56c.2,0,.36-.08,.48-.2,.12-.12,.2-.24,.2-.36v-6.08h2.16v9.76c0,.72-.2,1.32-.56,1.76-.36,.44-.84,.68-1.48,.68h-5.12v-2.24h4.36Z"></path>
  <path id="Path-4" class="cls-1" d="M39.82,27.39h3.88c.36,0,.56-.16,.56-.44v-.2s0-.12-.04-.2c-.08-.16-.2-.24-.32-.24h-1.92c-.56,0-1.08-.2-1.48-.6-.4-.36-.64-.8-.64-1.28v-1.68c.04-1.32,.72-1.96,2.12-2h4.52v2.24h-3.84c-.44,0-.68,.12-.68,.4v.2c0,.28,.24,.44,.68,.44h1.92c.52,0,.96,.2,1.32,.6s.56,.84,.56,1.36v1.64c0,.44-.24,.92-.64,1.36-.2,.24-.4,.36-.6,.48-.2,.08-.48,.12-.88,.12h-4.52v-2.2h0Z"></path>
  <path id="Shape-5" class="cls-1" d="M50.26,26.91c0,.12,.04,.24,.16,.32,.12,.08,.24,.12,.4,.12h1.68c.36,0,.56-.16,.6-.44v-.64c0-.36-.2-.52-.6-.52h-1.68c-.2,0-.36,.04-.44,.12-.08,.08-.12,.24-.12,.48v.56Zm2.84-3.44c0-.32-.2-.48-.6-.48h-4.4v-2.24h4.96c1.44,.04,2.16,.72,2.2,2.08v4.68c0,.6-.2,1.08-.56,1.48s-.84,.6-1.44,.6h-3c-1.44,0-2.2-.68-2.2-2v-1.8c0-1.4,.72-2.08,2.12-2.12h2.92v-.2h0Z"></path>
  <path id="Path-5" class="cls-1" d="M57.03,19.43c0-.6,.24-1.08,.68-1.44,.44-.36,1-.56,1.68-.56h1.4v2.16h-.84c-.48,0-.68,.24-.72,.64v.48h1.56v2.24h-1.56v6.64h-2.2v-10.16h0Z"></path>
  <path id="Path-6" class="cls-1" d="M.92,20.4c.16-.08,.36-.12,.52-.16,.32-1.52,1.64-2.64,3.24-2.64s2.92,1.12,3.24,2.64c.48,.08,.88,.28,1.2,.6,0-.28,0-.56-.04-.84-.16-2.28-2.08-4.08-4.4-4.08S.32,17.8,.24,20.2v.64c.2-.16,.44-.32,.68-.44"></path>
  <path id="Path-7" class="cls-1" d="M7.28,20.67H1.96c-.24,0-.52,.04-.8,.2-.28,.12-.48,.24-.64,.44-.32,.36-.52,.96-.52,1.72v4.16c0,.76,.2,1.36,.52,1.76,.16,.16,.4,.32,.64,.44,.28,.12,.52,.2,.8,.2H7.28c1.36,0,2.08-.76,2.08-2.28v-4.36c0-1.52-.68-2.24-2.08-2.28"></path>
  <path id="Shape-6" class="cls-1" d="M66.95,23.43v-.04c0-.12-.04-.2-.16-.28-.12-.08-.24-.12-.36-.12h-1.52c-.2,0-.36,.04-.48,.16-.16,.12-.24,.24-.24,.4v.92l2.76-1.04Zm-2.68,3.16v.12c0,.2,.04,.32,.16,.44,.08,.12,.16,.2,.28,.2h4.48v2.24h-4.76c-.44,0-.76-.04-1-.12-.28-.08-.48-.24-.72-.44-.24-.24-.4-.48-.48-.72-.08-.24-.12-.6-.12-1.04v-4.48c.04-1.36,.72-2.04,2.12-2.08h2.96c1.36,.04,2.04,.72,2.08,2.16v1.76l-5,1.96Z"></path>
</svg>
